<?xml version="1.0" encoding="UTF-8" standalone="no"?>
<!-- Created with Inkscape (http://www.inkscape.org/) -->

<svg
   xmlns:dc="http://purl.org/dc/elements/1.1/"
   xmlns:cc="http://creativecommons.org/ns#"
   xmlns:rdf="http://www.w3.org/1999/02/22-rdf-syntax-ns#"
   xmlns:svg="http://www.w3.org/2000/svg"
   xmlns="http://www.w3.org/2000/svg"
   xmlns:sodipodi="http://sodipodi.sourceforge.net/DTD/sodipodi-0.dtd"
   xmlns:inkscape="http://www.inkscape.org/namespaces/inkscape"
   width="210mm"
   height="297mm"
   viewBox="0 0 744.09448819 1052.3622047"
   id="svg4371"
   version="1.1"
   inkscape:version="0.91 r13725"
   sodipodi:docname="brrgrr.svg">
  <defs
     id="defs4373" />
  <sodipodi:namedview
     id="base"
     pagecolor="#ffffff"
     bordercolor="#666666"
     borderopacity="1.0"
     inkscape:pageopacity="0.0"
     inkscape:pageshadow="2"
     inkscape:zoom="0.7"
     inkscape:cx="372.04724"
     inkscape:cy="530.96281"
     inkscape:document-units="px"
     inkscape:current-layer="layer1"
     showgrid="false"
     inkscape:window-width="769"
     inkscape:window-height="961"
     inkscape:window-x="60"
     inkscape:window-y="327"
     inkscape:window-maximized="0" />
  <metadata
     id="metadata4376">
    <rdf:RDF>
      <cc:Work
         rdf:about="">
        <dc:format>image/svg+xml</dc:format>
        <dc:type
           rdf:resource="http://purl.org/dc/dcmitype/StillImage" />
        <dc:title></dc:title>
      </cc:Work>
    </rdf:RDF>
  </metadata>
  <g
     inkscape:label="Layer 1"
     inkscape:groupmode="layer"
     id="layer1">
    <path
       style="fill:#ff9955;fill-rule:evenodd;stroke:#000000;stroke-width:8;stroke-linecap:butt;stroke-linejoin:miter;stroke-opacity:1;stroke-miterlimit:4;stroke-dasharray:none"
       d="M 58.481027,536.64593 677.24643,508.07201 c 0,0 15.43405,55.71914 -5.61239,77.14958 -21.04644,21.43044 -585.091091,25.71652 -585.091091,25.71652 0,0 -47.705268,-10.00087 -28.061922,-74.29218 z"
       id="path4404"
       inkscape:connector-curvature="0" />
    <rect
       style="fill:#502d16;stroke:#000000;stroke-width:8;stroke-linejoin:miter;stroke-miterlimit:4;stroke-dasharray:none"
       id="rect4946"
       width="600"
       height="82.85714"
       x="37.568161"
       y="460.68314"
       rx="32.97057"
       ry="31.42857"
       transform="matrix(0.99883263,-0.04830495,0.04830495,0.99883263,0,0)" />
    <path
       style="fill:#ffdd55;fill-rule:evenodd;stroke:#000000;stroke-width:8;stroke-linecap:butt;stroke-linejoin:miter;stroke-miterlimit:4;stroke-dasharray:none;stroke-opacity:1"
       d="m 88.571427,463.79077 c 0,1.96338 -1.42857,5.71429 -1.42857,5.71429 -0.115493,0.46197 -1.091851,-0.33672 -1.428571,0 -0.336715,0.33671 0.336717,1.09185 0,1.42857 -0.336718,0.33672 -1.091854,-0.33672 -1.428572,0 -0.336717,0.33672 0.336718,1.09185 0,1.42857 -0.336717,0.33672 -1.091854,-0.33672 -1.428571,0 -0.935305,0.93531 1.441812,3.32892 -1.428572,4.28571 -0.903508,0.30117 -1.953636,-0.30116 -2.857143,0 -0.638877,0.21296 -0.95238,0.95239 -1.428571,1.42858 -0.47619,0.47619 -1.127402,0.82623 -1.428571,1.42857 -0.212959,0.42592 0.336717,1.09185 0,1.42857 -0.336718,0.33672 -1.091854,-0.33672 -1.428572,0 -0.336717,0.33672 0.212959,1.00265 0,1.42857 -0.301169,0.60234 -1.127402,0.82623 -1.428571,1.42857 -0.212959,0.42592 0.212959,1.00266 0,1.42857 -0.30117,0.60234 -1.127402,0.82624 -1.428572,1.42857 -0.387491,0.77499 0.390889,5.3234 0,5.71429 -0.336717,0.33672 -1.091854,-0.33672 -1.428571,0 -0.336718,0.33672 0,0.95238 0,1.42857 0,3.64023 1.666326,1.90408 2.857143,4.28572 0.212959,0.42591 -0.336718,1.09185 0,1.42857 0.336717,0.33671 0.952381,0 1.428571,0 1.012575,0 8.202071,-0.18468 8.571429,0 0.602338,0.30117 0.826233,1.1274 1.428571,1.42857 0.425918,0.21296 1.091854,-0.33672 1.428572,0 0.336717,0.33672 -0.336714,1.09185 0,1.42857 0.05749,0.0575 5.189661,0 5.714281,0 4.76191,0 9.523813,0 14.285723,0 0.47619,0 0.95238,0 1.42857,0 0.47619,0 1.09185,0.33672 1.42857,0 0.33672,-0.33672 -0.42592,-1.21561 0,-1.42857 0.85184,-0.42592 2.00531,0.42592 2.85714,0 0.42592,-0.21296 -0.33671,-1.09186 0,-1.42857 0.33672,-0.33672 0.95239,0 1.42858,0 0.95238,0 2.0053,0.42592 2.85714,0 0.42592,-0.21296 0,-0.95238 0,-1.42857 0,-0.52463 -0.0575,-5.6568 0,-5.71429 0.33672,-0.33672 0.97682,0.15058 1.42857,0 1.01015,-0.33672 2.10422,-0.67565 2.85714,-1.42857 0.001,-10e-4 -0.002,-4.27929 0,-4.28572 1.48621,-4.45907 0.95238,0.4762 2.85715,-1.42857 0.67343,-0.67343 -0.67344,-2.1837 0,-2.85714 0.67343,-0.67343 2.0053,0.42592 2.85714,0 0.60234,-0.30117 0.78969,-1.21561 1.42857,-1.42857 0.90351,-0.30117 1.95364,0.30117 2.85714,0 0.63888,-0.21296 0.82624,-1.1274 1.42857,-1.42857 0.42592,-0.21296 1.00266,0.21296 1.42858,0 0.60233,-0.30117 0.82623,-1.1274 1.42857,-1.42857 0.36936,-0.18468 7.55885,0 8.57143,0 0.47619,0 1.09185,-0.33672 1.42857,0 0.33671,0.33671 -0.33672,1.09185 0,1.42857 0.29205,0.29205 3.71929,-0.28321 4.28571,0 1.71429,0.85714 2.57143,3.42857 4.28572,4.28571 0.76323,0.38162 2.0939,-0.38162 2.85714,0 0.60234,0.30117 0.82623,1.1274 1.42857,1.42857 3.5185,1.75925 -1.28962,-4.14676 4.28571,1.42857 0.33672,0.33672 -0.33672,1.09186 0,1.42858 0.14717,0.14717 6.78673,-0.11871 7.14286,0 0.63888,0.21296 0.82623,1.1274 1.42857,1.42857 0.42592,0.21296 0.97682,-0.15058 1.42857,0 1.01016,0.33672 1.82415,1.17032 2.85715,1.42857 0.92394,0.23099 1.95363,-0.30117 2.85714,0 0.63888,0.21296 0.86824,1.05502 1.42857,1.42857 0.88596,0.59064 1.84699,1.09185 2.85714,1.42857 1.36888,0.45629 5.81942,-0.44115 7.14286,0 0.63888,0.21296 0.7897,1.21561 1.42857,1.42857 0.90351,0.30117 1.90476,0 2.85715,0 0.47619,0 1.00265,-0.21296 1.42857,0 0.60234,0.30117 0.82623,1.1274 1.42857,1.42857 0.32018,0.16009 5.37481,0 5.71428,0 1.68744,0 7.72192,0.28316 8.57143,0 0.63888,-0.21296 0.82624,-1.1274 1.42857,-1.42857 1.14286,-0.57143 3.14286,0.57143 4.28572,0 6.53801,-3.269 -6.06202,0.59211 4.28571,-2.85714 0.90351,-0.30117 2.00531,0.42592 2.85715,0 0.60233,-0.30117 0.78969,-1.21561 1.42857,-1.42857 0.90351,-0.30117 1.95363,0.30117 2.85714,0 0.63888,-0.21296 0.86824,-1.05502 1.42857,-1.42857 0.88596,-0.59064 2.10422,-0.67565 2.85714,-1.42857 0.75293,-0.75293 0.67565,-2.10422 1.42858,-2.85715 0.33671,-0.33671 0.97681,0.15059 1.42857,0 1.01015,-0.33671 2.10422,-0.67565 2.85714,-1.42857 0.33672,-0.33672 -0.42592,-1.21561 0,-1.42857 0.85184,-0.42592 2.1837,0.67344 2.85714,0 0.67344,-0.67344 -0.67343,-2.18371 0,-2.85714 0.46063,-0.46063 4.52364,0.39688 5.71429,0 0.63888,-0.21296 0.86824,-1.05502 1.42857,-1.42857 0.88596,-0.59064 1.84699,-1.09187 2.85714,-1.42858 0.90351,-0.30117 2.18371,0.67344 2.85715,0 0.33671,-0.33671 -0.42592,-1.21561 0,-1.42857 1.27775,-0.63887 2.85714,0 4.28571,0 3.80952,0 -0.47619,0.47619 1.42857,-1.42857 0.39089,-0.39089 4.93931,0.38749 5.71429,0 0.60234,-0.30117 0.82623,-1.1274 1.42857,-1.42857 0.89789,-0.44894 4.8164,0.44894 5.71428,0 0.60234,-0.30117 0.82624,-1.1274 1.42858,-1.42857 0.34301,-0.17151 9.19065,-0.16187 10,0 1.4766,0.29532 2.80911,1.13325 4.28571,1.42857 0.93389,0.18678 1.95364,-0.30117 2.85714,0 0.63888,0.21296 0.86824,1.05502 1.42857,1.42857 0.88597,0.59064 1.82415,1.17032 2.85715,1.42857 0.92394,0.23099 1.95363,-0.30117 2.85714,0 0.63888,0.21296 0.77524,1.26524 1.42857,1.42857 0.83805,0.20952 7.87136,-0.35003 8.57143,0 4.35652,2.17826 -2.61278,1.13252 4.28571,2.85715 1.42221,0.35555 7.684,-0.44372 8.57143,0 1.20468,0.60234 1.60661,2.35693 2.85715,2.85714 1.32639,0.53056 2.85714,0 4.28571,0 0.95238,0 1.90476,0 2.85714,0 0.47619,0 0.97682,-0.15058 1.42857,0 1.01016,0.33672 1.82415,1.17032 2.85715,1.42857 1.38592,0.34648 2.85714,0 4.28571,0 3.80952,0 7.61905,0 11.42857,0 4.28572,0 8.57143,0 12.85715,0 1.42857,0 2.93045,0.45176 4.28571,0 0.63888,-0.21296 0.7897,-1.21561 1.42857,-1.42857 1.28572,-0.42857 3,0.42857 4.28572,0 1.01015,-0.33672 1.84699,-1.09185 2.85714,-1.42857 0.45175,-0.15059 1.00265,0.21296 1.42857,0 0.60234,-0.30117 0.7897,-1.21561 1.42857,-1.42857 1.80702,-0.60234 3.90727,0.60234 5.71429,0 0.63887,-0.21296 0.78969,-1.21561 1.42857,-1.42857 1.80701,-0.60233 4.01061,0.85183 5.71428,0 0.42592,-0.21296 -0.33672,-1.09186 0,-1.42858 0.75293,-0.75293 1.84699,-1.09185 2.85715,-1.42857 0.45175,-0.15058 0.95238,0 1.42857,0 0.95238,0 1.90476,0 2.85714,0 3.33333,0 6.66667,0 10,0 0.95238,0 1.90476,0 2.85714,0 0.95239,0 2.00531,0.42592 2.85715,0 1.20467,-0.60234 1.65246,-2.2548 2.85714,-2.85714 0.41209,-0.20604 7.6584,0 8.57143,0 0.47619,0 1.00265,0.21296 1.42857,0 4.38888,-2.19444 -2.36279,-0.80576 2.85714,-4.28571 0.79243,-0.52829 1.90476,0 2.85715,0 1.28766,0 6.24371,0.29971 7.14285,0 1.01016,-0.33672 1.82414,-1.17032 2.85715,-1.42858 0.9478,-0.23695 7.35944,0 8.57142,0 6.19048,0 12.38095,0 18.57143,0 4.76191,0 9.52381,0 14.28572,0 1.42857,0 2.85714,0 4.28571,0 0.47619,0 1.00116,-0.20994 1.42857,0 8.12226,3.98957 -2.12959,-0.53239 5.71429,1.42858 1.033,0.25825 1.82414,1.17032 2.85714,1.42857 0.92395,0.23098 1.90476,0 2.85714,0 0.4762,0 1.00266,-0.21296 1.42858,0 0.60233,0.30117 0.82623,1.1274 1.42857,1.42857 0.42592,0.21296 0.9666,-0.11549 1.42857,0 1.46088,0.36522 2.80911,1.13325 4.28571,1.42857 1.41899,0.2838 7.52532,0 8.57143,0 3.80952,0 7.61905,0 11.42857,0 0.95238,0 1.90477,0 2.85715,0 0.47619,0 0.97681,-0.15059 1.42857,0 1.01015,0.33671 1.81302,1.21975 2.85714,1.42857 1.50856,0.30171 7.93401,0 10,0 7.14286,0 14.28571,0 21.42857,0 3.33333,0 6.66667,0 10,0 0.95238,0 1.90476,0 2.85714,0 0.95239,0 1.95364,0.30117 2.85715,0 0.63887,-0.21296 0.86824,-1.05502 1.42857,-1.42857 0.88596,-0.59064 1.82414,-1.17032 2.85714,-1.42857 2.2409,-0.56023 4.83747,-0.14369 7.14286,0 2.71995,0.16952 2.65689,-2.3142 4.28571,-2.85714 0.90351,-0.30117 1.9332,0.23098 2.85715,0 1.033,-0.25825 1.84699,-1.09186 2.85714,-1.42858 0.45175,-0.15058 0.9649,-0.10846 1.42857,0 2.65361,0.62069 2.65689,-2.3142 4.28571,-2.85714 0.90351,-0.30117 1.9332,0.23099 2.85715,0 1.033,-0.25825 1.84699,-1.09185 2.85714,-1.42857 0.45175,-0.15058 1.09185,0.33672 1.42857,0 0.33672,-0.33672 -0.42592,-1.21561 0,-1.42857 0.85184,-0.42592 1.95364,0.30117 2.85714,0 1.27776,-0.42592 1.65247,-2.25481 2.85715,-2.85714 0.42592,-0.21296 1.00265,0.21296 1.42857,0 1.20468,-0.60233 1.73648,-2.11004 2.85714,-2.85715 6.23935,-4.15956 -0.47088,0.63315 5.71429,-1.42857 0.63887,-0.21296 0.95238,-0.95238 1.42857,-1.42857 0.47619,-0.47619 1.1274,-0.82623 1.42857,-1.42857 0.21296,-0.42592 -0.21296,-1.00265 0,-1.42857 0.30117,-0.60234 1.1274,-0.82624 1.42857,-1.42857 0.21296,-0.42592 -0.33672,-1.09186 0,-1.42858 0.33672,-0.33671 1.09185,0.33672 1.42857,0 0.71429,-0.71429 -0.71428,-3.57142 0,-4.28571 0.33672,-0.33672 1.09186,0.33672 1.42857,0 0.33672,-0.33672 0,-0.95238 0,-1.42857 0,-2.38095 0,-4.76191 0,-7.14286 0,-3.80952 0,-7.61905 0,-11.42857 0,-0.64337 0.21738,-3.85095 0,-4.28571 -0.85715,-1.71429 -3.42857,-2.57143 -4.28571,-4.28572 -0.21296,-0.42592 0.33672,-1.09185 0,-1.42857 -0.33672,-0.33672 -1.00265,0.21296 -1.42857,0 -0.60234,-0.30117 -0.82623,-1.1274 -1.42857,-1.42857 -0.42592,-0.21296 -1.09186,0.33672 -1.42857,0 -0.33672,-0.33672 0.21296,-1.00265 0,-1.42857 -2.97268,-5.94537 0.0986,1.52719 -2.85715,-1.42857 -0.33671,-0.33672 0.33672,-1.09186 0,-1.42858 -10e-4,-0.001 -4.27928,0.002 -4.28571,0 -0.63893,-0.21281 -0.82623,-1.1274 -1.42857,-1.42857 -0.42592,-0.21296 -1.00266,0.21296 -1.42857,0 -6.53801,-3.269 6.06202,0.59211 -4.28572,-2.85714 -0.90351,-0.30117 -2.00531,0.42592 -2.85714,0 -0.60234,-0.30117 -0.7897,-1.21561 -1.42857,-1.42857 -0.90351,-0.30117 -1.95364,0.30117 -2.85715,0 -0.63887,-0.21296 -0.78969,-1.21561 -1.42857,-1.42857 -1.35526,-0.45176 -2.85714,0 -4.28571,0 l -8.57143,0 -21.42857,0 -35.71429,0 -11.42857,0 c -1.90476,0 -3.84651,-0.37356 -5.71428,0 -1.47661,0.29532 -2.80911,1.13325 -4.28572,1.42857 -0.93388,0.18678 -1.90476,0 -2.85714,0 l -12.85714,0 -4.28572,0 c -0.95238,0 -1.92325,-0.18678 -2.85714,0 -1.47661,0.29532 -2.80036,1.18101 -4.28572,1.42857 -2.34855,0.39143 -4.83299,-0.57747 -7.14285,0 -1.033,0.25825 -1.81303,1.21974 -2.85715,1.42857 -0.61957,0.12391 -8.25002,-0.12856 -8.57142,0 -1.25054,0.50022 -1.57939,2.43123 -2.85715,2.85714 -1.80701,0.60234 -3.83544,-0.31314 -5.71428,0 -1.05031,0.17506 -1.86851,1.03312 -2.85715,1.42858 -1.39814,0.55925 -2.85714,0.95238 -4.28571,1.42857 -1.42857,0.47619 -2.80036,1.18101 -4.28571,1.42857 -1.40914,0.23485 -2.85715,0 -4.28572,0 -1.42857,0 -2.85714,0 -4.28571,0 -6.66667,0 -13.33333,0 -20,0 -1.90476,0 -3.80953,0 -5.71429,0 -1.90476,0 -3.83544,-0.31314 -5.71428,0 -1.05031,0.17505 -1.80684,1.25352 -2.85715,1.42857 -1.87884,0.31314 -3.80952,0 -5.71428,0 -2.85714,0 -5.71429,0 -8.57143,0 -10,0 -20,0 -30,0 -3.33333,0 -6.66667,0 -10,0 -1.42857,0 -2.88489,-0.28017 -4.28572,0 -1.04411,0.20882 -1.82414,1.17032 -2.85714,1.42857 -0.92394,0.23099 -1.90476,0 -2.85714,0 -2.38095,0 -4.76191,0 -7.14286,0 -0.95238,0 -1.91433,-0.13469 -2.85714,0 -2.4037,0.34339 -4.73916,1.08519 -7.14286,1.42857 -0.94281,0.13469 -1.90476,0 -2.85714,0 -3.33333,0 -6.6708,0.16605 -10,0 -4.77972,-0.23839 -9.50038,-1.37378 -14.28572,-1.42857 -6.20835,-0.0711 -12.38095,0.95238 -18.57142,1.42857 -1.89916,0.14609 -3.82118,-0.21034 -5.71429,0 -26.7027,2.96697 6.37539,-0.11018 -11.42857,2.85715 -1.87885,0.31314 -3.83544,-0.31314 -5.71429,0 -2.39506,0.39917 -4.7335,1.1274 -7.14285,1.42857 -1.41754,0.17719 -2.88489,-0.28017 -4.28572,0 -1.04412,0.20882 -1.8685,1.03311 -2.85714,1.42857 -1.39814,0.55926 -2.80911,1.13325 -4.28572,1.42857 -0.93388,0.18678 -1.90476,0 -2.85714,0 -4.28571,0 -8.57143,0 -12.85714,0 -1.42857,0 -2.88489,-0.28017 -4.28572,0 -1.04411,0.20882 -1.81302,1.21975 -2.85714,1.42857 -1.40083,0.28017 -2.88488,-0.28016 -4.28571,0 -1.04412,0.20883 -1.81303,1.21975 -2.85715,1.42857 -1.40083,0.28017 -2.95931,-0.53055 -4.28571,0 -1.25054,0.50022 -1.60661,2.35694 -2.85714,2.85715 -1.3264,0.53056 -3.00796,-0.63888 -4.28572,0 -0.95238,0.47619 -0.47619,2.38095 -1.42857,2.85714 -0.45756,0.22878 -7.70266,-0.21719 -8.57143,0 -0.65332,0.16333 -0.95238,0.95238 -1.42857,1.42857 -0.95238,0.95238 -1.6066,2.35693 -2.85714,2.85714 -1.3264,0.53056 -2.85714,0 -4.28572,0 -0.95238,0 -1.90476,0 -2.85714,0 -1.47806,0 -8.91141,-0.27214 -10,0 -1.033,0.25825 -1.84699,1.09186 -2.85714,1.42857 -0.90351,0.30117 -2.00531,-0.42591 -2.85714,0 -0.60234,0.30117 -0.86824,1.05502 -1.42858,1.42858 -5.31503,3.54335 -0.88362,0.57804 -4.28571,1.42857 -1.46089,0.36522 -2.88757,0.86931 -4.28571,1.42857 -0.98864,0.39545 -1.81303,1.21975 -2.85715,1.42857 -1.40083,0.28017 -2.85714,0 -4.28571,0 -2.85714,0 -5.71429,0 -8.57143,0 -0.95238,0 -1.90476,0 -2.85714,0 -0.47619,0 -1.00266,-0.21296 -1.42857,0 -0.60234,0.30117 -0.7897,1.21561 -1.42858,1.42857 -0.9035,0.30117 -1.95363,-0.30117 -2.85714,0 -0.63888,0.21296 -0.82623,1.1274 -1.42857,1.42857 -0.42592,0.21296 -1.00265,-0.21296 -1.42857,0 -0.60234,0.30117 -0.82623,1.12741 -1.42857,1.42857 -0.85184,0.42592 -1.9332,-0.23099 -2.85715,0 -2.782,0.6955 -5.78942,2.16165 -8.57142,2.85715 -0.46198,0.11549 -0.95239,0 -1.42858,0 -0.95238,0 -1.90476,0 -2.85714,0 -2.38095,0 -4.76191,0 -7.14286,0 -0.47619,0 -1.00265,-0.21296 -1.428573,0 -1.61781,0.8089 -1.23932,2.04823 -2.85714,2.85714 -0.88488,0.44244 -5.2916,-0.42269 -5.71429,0 -0.33671,0.33672 0.21296,1.00265 0,1.42857 -0.30116,0.60234 -1.1274,0.82623 -1.42857,1.42857 -0.21296,0.42592 0.33672,1.09185 0,1.42857 -0.33672,0.33672 -1.09185,-0.33671 -1.42857,0 -0.33672,0.33672 0.33672,1.09186 0,1.42858 -0.33672,0.33671 -1.544063,-0.46197 -1.42857,0 0,0 1.42857,3.7509 1.42857,5.71428 z"
       id="path4948"
       inkscape:connector-curvature="0"
       sodipodi:nodetypes="sssssssssssssssssssssssssssssssssssssssssssssssssssssssssssssssssssssssssssssssssssssssssssssssssssssssssssssssssssssssssssssssssssssssssssssssssssssssssssssssssssssssssssssssssssssssssssssssssssssssssssssscccsssscssssssssssssssssssssssssssssssssssssssssssssssssssssssssssssssssssssssssssssssssssss" />
    <ellipse
       style="fill:#ff2a2a;stroke:#000000;stroke-width:8;stroke-linejoin:miter;stroke-miterlimit:4;stroke-dasharray:none"
       id="path4950"
       cx="154.85947"
       cy="465.80429"
       rx="130"
       ry="32.857143"
       transform="matrix(0.99103181,-0.13362614,0.13362614,0.99103181,0,0)" />
    <ellipse
       style="fill:#ff2a2a;stroke:#000000;stroke-width:8;stroke-linejoin:miter;stroke-miterlimit:4;stroke-dasharray:none"
       id="path4950-5"
       cx="487.86301"
       cy="425.55371"
       rx="130"
       ry="32.857143"
       transform="matrix(0.99988409,-0.01522542,0.01522542,0.99988409,0,0)" />
    <path
       style="fill:#ff9955;fill-rule:evenodd;stroke:#000000;stroke-width:8;stroke-linecap:butt;stroke-linejoin:miter;stroke-miterlimit:4;stroke-dasharray:none;stroke-opacity:1"
       d="M 51.428571,452.36221 659.99999,418.0765 c 0,0 31.42857,-158.57143 -307.14286,-158.57143 -338.571416,0 -301.428559,192.85714 -301.428559,192.85714 z"
       id="path4398"
       inkscape:connector-curvature="0"
       sodipodi:nodetypes="ccsc" />
    <ellipse
       style="fill:#ffffff;stroke:#000000;stroke-width:8;stroke-linejoin:miter;stroke-miterlimit:4;stroke-dasharray:none"
       id="path4998"
       cx="247.63348"
       cy="442.20743"
       rx="57.857143"
       ry="80"
       transform="matrix(0.99821918,-0.0596529,0.0596529,0.99821918,0,0)" />
    <ellipse
       style="fill:#ffffff;stroke:#000000;stroke-width:8;stroke-linejoin:miter;stroke-miterlimit:4;stroke-dasharray:none"
       id="path4998-0"
       cx="404.46521"
       cy="440.13068"
       rx="57.857143"
       ry="80"
       transform="matrix(0.99821918,-0.0596529,0.0596529,0.99821918,0,0)" />
    <path
       style="fill:#000000;stroke:#000000;stroke-width:8;stroke-linejoin:miter;stroke-miterlimit:4;stroke-dasharray:none"
       id="path5015"
       transform="matrix(0.99527993,-0.09704567,0.09704567,0.99527993,0,0)"
       sodipodi:type="arc"
       sodipodi:cx="231.58673"
       sodipodi:cy="451.25238"
       sodipodi:rx="25.714285"
       sodipodi:ry="42.857143"
       sodipodi:start="0"
       sodipodi:end="5.9320288"
       d="m 257.30102,451.25238 a 25.714285,42.857143 0 0 1 -23.45975,42.6921 25.714285,42.857143 0 0 1 -27.57348,-35.20592 25.714285,42.857143 0 0 1 18.62466,-48.86556 25.714285,42.857143 0 0 1 30.83937,26.63721 l -24.14509,14.74217 z" />
    <path
       style="fill:#000000;stroke:#000000;stroke-width:8;stroke-linejoin:miter;stroke-miterlimit:4;stroke-dasharray:none"
       id="path5015-8"
       transform="matrix(0.99527993,-0.09704567,0.09704567,0.99527993,0,0)"
       sodipodi:type="arc"
       sodipodi:cx="387.5365"
       sodipodi:cy="456.41092"
       sodipodi:rx="25.714285"
       sodipodi:ry="42.857143"
       sodipodi:start="0"
       sodipodi:end="5.9442211"
       d="m 413.25078,456.41092 a 25.714285,42.857143 0 0 1 -23.53783,42.70336 25.714285,42.857143 0 0 1 -27.52231,-35.47457 25.714285,42.857143 0 0 1 18.87888,-48.70846 25.714285,42.857143 0 0 1 30.71811,27.22922 l -24.25113,14.25045 z" />
    <path
       style="fill:#ff9955;stroke:#000000;stroke-width:8;stroke-linejoin:miter;stroke-miterlimit:4;stroke-dasharray:none"
       id="path5032"
       sodipodi:type="arc"
       sodipodi:cx="-306.392"
       sodipodi:cy="-515.10187"
       sodipodi:rx="47.142857"
       sodipodi:ry="20"
       sodipodi:start="0"
       sodipodi:end="6.2290345"
       d="m -259.24914,-515.10187 a 47.142857,20 0 0 1 -46.50467,19.99817 47.142857,20 0 0 1 -47.76377,-19.45673 47.142857,20 0 0 1 45.21149,-20.52495 47.142857,20 0 0 1 48.98785,18.90103"
       sodipodi:open="true"
       transform="matrix(-0.9951217,0.09865499,-0.09865499,-0.9951217,0,0)" />
    <path
       style="fill:#ffffff;fill-rule:evenodd;stroke:#000000;stroke-width:8;stroke-linecap:butt;stroke-linejoin:miter;stroke-miterlimit:4;stroke-dasharray:none;stroke-opacity:1"
       d="m 292.85715,545.21935 132.85713,-8.57143 c 0,0 -8.57142,58.57143 -65.71428,58.57143 -57.14285,0 -67.14285,-50 -67.14285,-50 z"
       id="path5036"
       inkscape:connector-curvature="0"
       sodipodi:nodetypes="ccsc" />
    <path
       style="fill:none;fill-rule:evenodd;stroke:#000000;stroke-width:8;stroke-linecap:butt;stroke-linejoin:miter;stroke-miterlimit:4;stroke-dasharray:none;stroke-opacity:1"
       d="m 314.57143,578.93363 c 0,0 47.14286,-10 70,0 22.85714,10 5.71428,4.28572 5.71428,4.28572"
       id="path5038"
       inkscape:connector-curvature="0" />
    <path
       style="fill:#000000;stroke:#000000;stroke-width:11.4285717;stroke-linejoin:miter;stroke-miterlimit:4;stroke-dasharray:none"
       d="m 386.76153,574.94278 c -7.48022,-3.28818 -10.93571,-3.84045 -27.14286,-4.33804 -11.52377,-0.35381 -23.63246,0.18427 -31.90785,1.41789 l -13.33643,1.98807 -4.7056,-5.80566 c -4.52641,-5.58457 -11.45097,-17.83634 -10.50692,-18.59011 0.25124,-0.2006 22.9568,-1.77163 50.4568,-3.49118 27.5,-1.71955 54.33929,-3.51401 59.64286,-3.98769 11.57162,-1.0335 11.82095,-0.42321 5.35877,13.11706 -3.86667,8.10187 -16.00764,23.66241 -18.3483,23.51618 -0.51647,-0.0323 -4.79618,-1.7542 -9.51047,-3.82652 z"
       id="path5044"
       inkscape:connector-curvature="0" />
    <path
       style="fill:#ffaaaa;stroke:none;stroke-width:8;stroke-linejoin:miter;stroke-miterlimit:4;stroke-dasharray:none"
       d="m 337.75998,588.64197 c -4.93228,-1.58099 -11.0308,-4.16176 -13.55224,-5.73502 l -4.58447,-2.8605 6.77477,-1.56455 c 3.72611,-0.86051 16.30559,-1.62496 27.9544,-1.69878 17.14617,-0.10861 22.79304,0.61386 29.65151,3.79392 l 8.47186,3.92816 -9.31904,3.51517 c -11.42346,4.30898 -32.97266,4.60403 -45.39679,0.6216 z"
       id="path5048"
       inkscape:connector-curvature="0" />
    <path
       style="fill:none;fill-rule:evenodd;stroke:#000000;stroke-width:8;stroke-linecap:butt;stroke-linejoin:miter;stroke-opacity:1;stroke-miterlimit:4;stroke-dasharray:none"
       d="m 660,452.3622 c 0,0 52.85714,2.85715 42.85714,-40 -10,-42.85714 -7.14285,-102.85714 -7.14285,-102.85714"
       id="path5054"
       inkscape:connector-curvature="0" />
    <path
       style="fill:none;fill-rule:evenodd;stroke:#000000;stroke-width:8;stroke-linecap:butt;stroke-linejoin:miter;stroke-opacity:1;stroke-miterlimit:4;stroke-dasharray:none"
       d="m 58.571429,492.3622 c 0,0 -47.142858,4.28572 -41.428572,74.28572 5.714286,70 17.142857,65.71428 17.142857,65.71428"
       id="path5056"
       inkscape:connector-curvature="0" />
    <path
       style="fill:none;fill-rule:evenodd;stroke:#000000;stroke-width:8;stroke-linecap:butt;stroke-linejoin:miter;stroke-opacity:1;stroke-miterlimit:4;stroke-dasharray:none"
       d="m 124.28571,609.50506 c 0,0 -37.142853,31.42857 -29.999996,138.57143 7.142856,107.14286 1.428572,55.71429 1.428572,55.71429"
       id="path5058"
       inkscape:connector-curvature="0" />
    <path
       style="fill:none;fill-rule:evenodd;stroke:#000000;stroke-width:8;stroke-linecap:butt;stroke-linejoin:miter;stroke-opacity:1;stroke-miterlimit:4;stroke-dasharray:none"
       d="M 641.42857,593.79078 C 660,745.21935 634.28571,768.07649 634.28571,768.07649"
       id="path5060"
       inkscape:connector-curvature="0" />
  </g>
</svg>
